<?xml version="1.0" encoding="UTF-8"?>
<!DOCTYPE svg PUBLIC "-//W3C//DTD SVG 1.1//EN" "http://www.w3.org/Graphics/SVG/1.1/DTD/svg11.dtd">
<svg version="1.1" xmlns="http://www.w3.org/2000/svg" xmlns:xlink="http://www.w3.org/1999/xlink" x="0" y="0" width="944" height="704" viewBox="0, 0, 944, 704">
  <g id="Layer_1">
    <path d="M472.5,635.828 C325.566,635.828 206.452,517 206.452,370.42 C206.452,223.839 325.566,105.012 472.5,105.012 C619.434,105.012 738.548,223.839 738.548,370.42 C738.548,517 619.434,635.828 472.5,635.828 z" fill-opacity="0" stroke="#FFFFFF" stroke-width="30" stroke-linecap="round" id="Shape"/>
    <g>
      <text transform="matrix(1, 0, 0, 1, 472, 401.28)">
        <tspan x="-133.398" y="127.953" font-family="ArialMT" font-size="400" fill="#FFFFFF">V</tspan>
      </text>
      <path d="M451.297,529.233 L340.359,242.905 L381.375,242.905 L455.789,450.913 Q464.773,475.913 470.828,497.788 Q477.469,474.35 486.258,450.913 L563.602,242.905 L602.273,242.905 L490.164,529.233 z" fill-opacity="0" stroke="#FFFFFF" stroke-width="1"/>
    </g>
    <path d="M311.824,295.842 C311.824,214.989 383.307,149.444 471.485,149.444" fill-opacity="0" stroke="#FFFFFF" stroke-width="5" stroke-linecap="round" stroke-linejoin="bevel"/>
    <path d="M471.485,149.444 C560.784,149.444 633.176,214.989 633.176,295.842" fill-opacity="0" stroke="#FFFFFF" stroke-width="5" stroke-linecap="round" stroke-linejoin="bevel"/>
    <g>
      <g>
        <path d="M326.703,527.209 L339.948,509.844 L355.922,522.028 Q358.037,523.641 359.47,525.57 Q360.903,527.5 361.439,529.625 Q361.975,531.751 361.502,533.987 Q361.029,536.223 359.288,538.505 Q357.675,540.62 355.609,541.598 Q353.543,542.575 351.324,542.599 Q349.105,542.623 346.892,541.772 Q344.68,540.921 342.677,539.393 z M339.684,507.882 L309.373,547.622 L325.792,560.145 Q328.631,562.31 331.582,563.461 Q334.534,564.612 337.279,564.592 Q340.023,564.572 342.546,563.284 Q345.07,561.995 347.107,559.323 Q348.848,557.042 349.448,554.638 Q350.049,552.235 349.696,549.985 Q349.343,547.735 348.121,545.702 Q346.898,543.669 344.993,542.128 L345.077,542.016 Q346.999,543.306 349.103,543.722 Q351.206,544.138 353.254,543.763 Q355.301,543.387 357.172,542.261 Q359.043,541.135 360.401,539.354 Q362.312,536.85 362.85,534.355 Q363.388,531.86 362.813,529.441 Q362.237,527.021 360.673,524.859 Q359.108,522.697 356.771,520.914 z M311.335,547.358 L325.854,528.322 L341.828,540.506 Q343.943,542.119 345.592,544.17 Q347.241,546.22 347.979,548.543 Q348.716,550.866 348.332,553.39 Q347.947,555.914 345.952,558.53 Q344.084,560.979 341.814,562.109 Q339.544,563.238 337.1,563.268 Q334.657,563.297 332.124,562.289 Q329.591,561.282 327.142,559.414 z" fill="#FFFFFF"/>
        <path d="M326.703,527.209 L339.948,509.844 L355.922,522.028 Q358.037,523.641 359.47,525.57 Q360.903,527.5 361.439,529.625 Q361.975,531.751 361.502,533.987 Q361.029,536.223 359.288,538.505 Q357.675,540.62 355.609,541.598 Q353.543,542.575 351.324,542.599 Q349.105,542.623 346.892,541.772 Q344.68,540.921 342.677,539.393 z M339.684,507.882 L309.373,547.622 L325.792,560.145 Q328.631,562.31 331.582,563.461 Q334.534,564.612 337.279,564.592 Q340.023,564.572 342.546,563.284 Q345.07,561.995 347.107,559.323 Q348.848,557.042 349.448,554.638 Q350.049,552.235 349.696,549.985 Q349.343,547.735 348.121,545.702 Q346.898,543.669 344.993,542.128 L345.077,542.016 Q346.999,543.306 349.103,543.722 Q351.206,544.138 353.254,543.763 Q355.301,543.387 357.172,542.261 Q359.043,541.135 360.401,539.354 Q362.312,536.85 362.85,534.355 Q363.388,531.86 362.813,529.441 Q362.237,527.021 360.673,524.859 Q359.108,522.697 356.771,520.914 z M311.335,547.358 L325.854,528.322 L341.828,540.506 Q343.943,542.119 345.592,544.17 Q347.241,546.22 347.979,548.543 Q348.716,550.866 348.332,553.39 Q347.947,555.914 345.952,558.53 Q344.084,560.979 341.814,562.109 Q339.544,563.238 337.1,563.268 Q334.657,563.297 332.124,562.289 Q329.591,561.282 327.142,559.414 z" fill-opacity="0" stroke="#FFFFFF" stroke-width="1"/>
      </g>
      <g>
        <path d="M404.757,545.684 L392.717,574.641 Q389.25,582.979 383.636,585.724 Q378.022,588.469 370.008,585.137 Q361.993,581.805 359.98,575.888 Q357.967,569.972 361.433,561.634 L373.473,532.677 L372.18,532.14 L360.141,561.097 Q356.271,570.404 358.747,576.665 Q361.224,582.925 369.497,586.365 Q377.77,589.805 383.955,587.145 Q390.14,584.486 394.01,575.178 L406.049,546.221 z" fill="#FFFFFF"/>
        <path d="M404.757,545.684 L392.717,574.641 Q389.25,582.979 383.636,585.724 Q378.022,588.469 370.008,585.137 Q361.993,581.805 359.98,575.888 Q357.967,569.972 361.433,561.634 L373.473,532.677 L372.18,532.14 L360.141,561.097 Q356.271,570.404 358.747,576.665 Q361.224,582.925 369.497,586.365 Q377.77,589.805 383.955,587.145 Q390.14,584.486 394.01,575.178 L406.049,546.221 z" fill-opacity="0" stroke="#FFFFFF" stroke-width="1"/>
      </g>
      <g>
        <path d="M434.404,600.408 L405.648,595.393 L413.994,547.535 L412.615,547.294 L404.028,596.531 L434.163,601.787 z" fill="#FFFFFF"/>
        <path d="M434.404,600.408 L405.648,595.393 L413.994,547.535 L412.615,547.294 L404.028,596.531 L434.163,601.787 z" fill-opacity="0" stroke="#FFFFFF" stroke-width="1"/>
      </g>
      <g>
        <path d="M469.524,580.524 L488.911,580.194 L488.955,582.783 Q489.025,586.913 487.546,590.473 Q486.066,594.034 483.415,596.635 Q480.764,599.235 477.149,600.732 Q473.534,602.229 469.405,602.299 Q463.876,602.394 459.678,600.505 Q455.48,598.616 452.623,595.305 Q449.766,591.993 448.289,587.502 Q446.813,583.012 446.726,577.903 Q446.638,572.793 448.031,568.254 Q449.424,563.714 452.201,560.307 Q454.979,556.899 459.04,554.869 Q463.101,552.84 468.35,552.75 Q472.269,552.683 475.542,553.713 Q478.815,554.742 481.335,556.729 Q483.854,558.717 485.547,561.523 Q487.24,564.33 487.93,567.819 L489.329,567.795 Q488.634,563.956 486.867,560.906 Q485.099,557.855 482.367,555.697 Q479.635,553.538 476.08,552.408 Q472.525,551.279 468.326,551.35 Q462.797,551.445 458.492,553.548 Q454.187,555.652 451.238,559.238 Q448.289,562.824 446.761,567.645 Q445.233,572.467 445.326,577.926 Q445.418,583.316 447.004,588.049 Q448.59,592.783 451.589,596.267 Q454.589,599.752 459.034,601.741 Q463.478,603.731 469.218,603.633 Q476.636,603.506 481.825,599.847 Q487.013,596.188 488.934,589.785 L489.074,589.782 L489.286,602.17 L490.685,602.147 L490.287,578.77 L469.5,579.124 z" fill="#FFFFFF"/>
        <path d="M469.524,580.524 L488.911,580.194 L488.955,582.783 Q489.025,586.913 487.546,590.473 Q486.066,594.034 483.415,596.635 Q480.764,599.235 477.149,600.732 Q473.534,602.229 469.405,602.299 Q463.876,602.394 459.678,600.505 Q455.48,598.616 452.623,595.305 Q449.766,591.993 448.289,587.502 Q446.813,583.012 446.726,577.903 Q446.638,572.793 448.031,568.254 Q449.424,563.714 452.201,560.307 Q454.979,556.899 459.04,554.869 Q463.101,552.84 468.35,552.75 Q472.269,552.683 475.542,553.713 Q478.815,554.742 481.335,556.729 Q483.854,558.717 485.547,561.523 Q487.24,564.33 487.93,567.819 L489.329,567.795 Q488.634,563.956 486.867,560.906 Q485.099,557.855 482.367,555.697 Q479.635,553.538 476.08,552.408 Q472.525,551.279 468.326,551.35 Q462.797,551.445 458.492,553.548 Q454.187,555.652 451.238,559.238 Q448.289,562.824 446.761,567.645 Q445.233,572.467 445.326,577.926 Q445.418,583.316 447.004,588.049 Q448.59,592.783 451.589,596.267 Q454.589,599.752 459.034,601.741 Q463.478,603.731 469.218,603.633 Q476.636,603.506 481.825,599.847 Q487.013,596.188 488.934,589.785 L489.074,589.782 L489.286,602.17 L490.685,602.147 L490.287,578.77 L469.5,579.124 z" fill-opacity="0" stroke="#FFFFFF" stroke-width="1"/>
      </g>
      <g>
        <path d="M508.159,583.074 L533.161,578.162 L542.789,593.035 L544.3,592.739 L515.296,547.501 L513.51,547.852 L503.294,600.795 L504.805,600.498 z M532.342,576.897 L508.439,581.593 L514.604,549.064 L514.741,549.037 z" fill="#FFFFFF"/>
        <path d="M508.159,583.074 L533.161,578.162 L542.789,593.035 L544.3,592.739 L515.296,547.501 L513.51,547.852 L503.294,600.795 L504.805,600.498 z M532.342,576.897 L508.439,581.593 L514.604,549.064 L514.741,549.037 z" fill-opacity="0" stroke="#FFFFFF" stroke-width="1"/>
      </g>
      <g>
        <path d="M558.127,588.438 L549.823,566.507 L567.433,559.84 Q571.492,558.303 574.224,558.204 Q576.956,558.105 578.848,559.148 Q580.74,560.191 582.02,562.288 Q583.301,564.386 584.392,567.266 Q584.813,568.379 585.379,569.774 Q585.944,571.169 586.563,572.507 Q587.182,573.844 587.837,574.981 Q588.492,576.118 589.092,576.714 L590.532,576.169 Q590.031,575.834 589.388,574.73 Q588.746,573.626 588.07,572.236 Q587.393,570.845 586.77,569.397 Q586.147,567.949 585.775,566.967 Q584.709,564.152 583.539,562.05 Q582.369,559.948 580.768,558.683 Q579.166,557.418 576.949,557.098 Q574.732,556.777 571.637,557.5 L571.587,557.369 Q576.076,554.397 577.517,550.296 Q578.958,546.195 577.043,541.531 Q574.582,535.427 570.075,533.802 Q565.568,532.178 558.235,534.954 L539.12,542.192 L556.818,588.934 z M549.328,565.198 L540.925,543.006 L559.058,536.14 Q565.736,533.611 569.735,535.278 Q573.735,536.945 575.684,541.896 Q576.849,544.973 576.566,547.587 Q576.284,550.201 574.996,552.336 Q573.708,554.47 571.567,556.029 Q569.425,557.589 566.807,558.58 z" fill="#FFFFFF"/>
        <path d="M558.127,588.438 L549.823,566.507 L567.433,559.84 Q571.492,558.303 574.224,558.204 Q576.956,558.105 578.848,559.148 Q580.74,560.191 582.02,562.288 Q583.301,564.386 584.392,567.266 Q584.813,568.379 585.379,569.774 Q585.944,571.169 586.563,572.507 Q587.182,573.844 587.837,574.981 Q588.492,576.118 589.092,576.714 L590.532,576.169 Q590.031,575.834 589.388,574.73 Q588.746,573.626 588.07,572.236 Q587.393,570.845 586.77,569.397 Q586.147,567.949 585.775,566.967 Q584.709,564.152 583.539,562.05 Q582.369,559.948 580.768,558.683 Q579.166,557.418 576.949,557.098 Q574.732,556.777 571.637,557.5 L571.587,557.369 Q576.076,554.397 577.517,550.296 Q578.958,546.195 577.043,541.531 Q574.582,535.427 570.075,533.802 Q565.568,532.178 558.235,534.954 L539.12,542.192 L556.818,588.934 z M549.328,565.198 L540.925,543.006 L559.058,536.14 Q565.736,533.611 569.735,535.278 Q573.735,536.945 575.684,541.896 Q576.849,544.973 576.566,547.587 Q576.284,550.201 574.996,552.336 Q573.708,554.47 571.567,556.029 Q569.425,557.589 566.807,558.58 z" fill-opacity="0" stroke="#FFFFFF" stroke-width="1"/>
      </g>
      <g>
        <path d="M582.05,524.098 L605.346,568.317 L606.584,567.665 L583.289,523.446 z" fill="#FFFFFF"/>
        <path d="M582.05,524.098 L605.346,568.317 L606.584,567.665 L583.289,523.446 z" fill-opacity="0" stroke="#FFFFFF" stroke-width="1"/>
      </g>
      <g>
        <path d="M615.377,544.224 L635.819,529.014 L650.917,538.283 L652.153,537.364 L606.48,509.05 L605.02,510.136 L618.626,562.31 L619.861,561.391 z M634.534,528.225 L614.99,542.767 L606.53,510.758 L606.642,510.675 z" fill="#FFFFFF"/>
        <path d="M615.377,544.224 L635.819,529.014 L650.917,538.283 L652.153,537.364 L606.48,509.05 L605.02,510.136 L618.626,562.31 L619.861,561.391 z M634.534,528.225 L614.99,542.767 L606.53,510.758 L606.642,510.675 z" fill-opacity="0" stroke="#FFFFFF" stroke-width="1"/>
      </g>
    </g>
  </g>
</svg>
